<svg xmlns="http://www.w3.org/2000/svg" xmlns:xlink="http://www.w3.org/1999/xlink" width="600" height="400" viewBox="0 0 2400 1600">
<defs>
  <clipPath id="clip490">
    <rect x="0" y="0" width="2400" height="1600"></rect>
  </clipPath>
</defs>
<path clip-path="url(#clip490)" d="
M0 1600 L2400 1600 L2400 0 L0 0  Z
  " fill="#ffffff" fill-rule="evenodd" fill-opacity="1"></path>
<defs>
  <clipPath id="clip491">
    <rect x="480" y="0" width="1681" height="1600"></rect>
  </clipPath>
</defs>
<path clip-path="url(#clip490)" d="
M173.504 1489.49 L2352.76 1489.49 L2352.76 47.2441 L173.504 47.2441  Z
  " fill="#ffffff" fill-rule="evenodd" fill-opacity="1"></path>
<defs>
  <clipPath id="clip492">
    <rect x="173" y="47" width="2180" height="1443"></rect>
  </clipPath>
</defs>
<polyline clip-path="url(#clip490)" style="stroke:#000000; stroke-linecap:round; stroke-linejoin:round; stroke-width:4; stroke-opacity:1; fill:none" points="
  173.504,1489.49 2352.76,1489.49 
  "></polyline>
<path clip-path="url(#clip490)" d="M1185.01 1534.99 L1225.21 1534.99 L1225.21 1540.4 L1208.34 1540.4 L1208.34 1582.51 L1201.88 1582.51 L1201.88 1540.4 L1185.01 1540.4 L1185.01 1534.99 Z" fill="#000000" fill-rule="evenodd" fill-opacity="1"></path><path clip-path="url(#clip490)" d="M1229.15 1546.86 L1235.01 1546.86 L1235.01 1582.51 L1229.15 1582.51 L1229.15 1546.86 M1229.15 1532.99 L1235.01 1532.99 L1235.01 1540.4 L1229.15 1540.4 L1229.15 1532.99 Z" fill="#000000" fill-rule="evenodd" fill-opacity="1"></path><path clip-path="url(#clip490)" d="M1275.02 1553.71 Q1277.21 1549.76 1280.27 1547.88 Q1283.33 1546 1287.46 1546 Q1293.03 1546 1296.06 1549.92 Q1299.08 1553.8 1299.08 1561 L1299.08 1582.51 L1293.19 1582.51 L1293.19 1561.19 Q1293.19 1556.06 1291.38 1553.58 Q1289.56 1551.1 1285.84 1551.1 Q1281.29 1551.1 1278.65 1554.12 Q1276 1557.14 1276 1562.36 L1276 1582.51 L1270.12 1582.51 L1270.12 1561.19 Q1270.12 1556.03 1268.3 1553.58 Q1266.49 1551.1 1262.7 1551.1 Q1258.21 1551.1 1255.57 1554.15 Q1252.93 1557.18 1252.93 1562.36 L1252.93 1582.51 L1247.04 1582.51 L1247.04 1546.86 L1252.93 1546.86 L1252.93 1552.4 Q1254.93 1549.12 1257.74 1547.56 Q1260.54 1546 1264.39 1546 Q1268.27 1546 1270.98 1547.98 Q1273.71 1549.95 1275.02 1553.71 Z" fill="#000000" fill-rule="evenodd" fill-opacity="1"></path><path clip-path="url(#clip490)" d="M1341.25 1563.22 L1341.25 1566.09 L1314.33 1566.09 Q1314.71 1572.14 1317.95 1575.32 Q1321.23 1578.47 1327.06 1578.47 Q1330.43 1578.47 1333.58 1577.64 Q1336.77 1576.81 1339.88 1575.16 L1339.88 1580.7 Q1336.73 1582.03 1333.42 1582.73 Q1330.11 1583.43 1326.71 1583.43 Q1318.18 1583.43 1313.18 1578.47 Q1308.22 1573.5 1308.22 1565.04 Q1308.22 1556.29 1312.93 1551.16 Q1317.67 1546 1325.69 1546 Q1332.88 1546 1337.05 1550.65 Q1341.25 1555.27 1341.25 1563.22 M1335.4 1561.51 Q1335.33 1556.7 1332.69 1553.83 Q1330.08 1550.97 1325.75 1550.97 Q1320.85 1550.97 1317.89 1553.74 Q1314.96 1556.51 1314.52 1561.54 L1335.4 1561.51 Z" fill="#000000" fill-rule="evenodd" fill-opacity="1"></path><polyline clip-path="url(#clip490)" style="stroke:#000000; stroke-linecap:round; stroke-linejoin:round; stroke-width:4; stroke-opacity:1; fill:none" points="
  173.504,1489.49 173.504,47.2441 
  "></polyline>
<path clip-path="url(#clip490)" d="M39.7283 936.437 L39.7283 896.237 L45.1391 896.237 L45.1391 913.106 L87.2483 913.106 L87.2483 919.567 L45.1391 919.567 L45.1391 936.437 L39.7283 936.437 Z" fill="#000000" fill-rule="evenodd" fill-opacity="1"></path><path clip-path="url(#clip490)" d="M57.0748 879.209 Q56.5019 880.196 56.2473 881.373 Q55.9608 882.519 55.9608 883.919 Q55.9608 888.885 59.2073 891.558 Q62.422 894.2 68.4694 894.2 L87.2483 894.2 L87.2483 900.088 L51.6003 900.088 L51.6003 894.2 L57.1385 894.2 Q53.8919 892.354 52.3324 889.394 Q50.7409 886.434 50.7409 882.201 Q50.7409 881.596 50.8364 880.864 Q50.9001 880.132 51.0592 879.241 L57.0748 879.209 Z" fill="#000000" fill-rule="evenodd" fill-opacity="1"></path><path clip-path="url(#clip490)" d="M69.3288 856.865 Q69.3288 863.963 70.952 866.7 Q72.5753 869.437 76.4902 869.437 Q79.6094 869.437 81.4555 867.4 Q83.2697 865.332 83.2697 861.799 Q83.2697 856.929 79.8322 854.001 Q76.3629 851.041 70.6338 851.041 L69.3288 851.041 L69.3288 856.865 M66.9098 845.184 L87.2483 845.184 L87.2483 851.041 L81.8374 851.041 Q85.0839 853.046 86.6435 856.038 Q88.1713 859.03 88.1713 863.358 Q88.1713 868.833 85.1157 872.079 Q82.0284 875.294 76.8722 875.294 Q70.8566 875.294 67.801 871.284 Q64.7455 867.241 64.7455 859.252 L64.7455 851.041 L64.1726 851.041 Q60.1303 851.041 57.9342 853.714 Q55.7062 856.356 55.7062 861.162 Q55.7062 864.218 56.4382 867.114 Q57.1703 870.01 58.6344 872.684 L53.2236 872.684 Q51.9822 869.469 51.3775 866.446 Q50.7409 863.422 50.7409 860.557 Q50.7409 852.823 54.7513 849.004 Q58.7617 845.184 66.9098 845.184 Z" fill="#000000" fill-rule="evenodd" fill-opacity="1"></path><path clip-path="url(#clip490)" d="M51.6003 833.121 L51.6003 827.265 L87.2483 827.265 L87.2483 833.121 L51.6003 833.121 M37.7231 833.121 L37.7231 827.265 L45.1391 827.265 L45.1391 833.121 L37.7231 833.121 Z" fill="#000000" fill-rule="evenodd" fill-opacity="1"></path><path clip-path="url(#clip490)" d="M41.4788 809.218 L51.6003 809.218 L51.6003 797.155 L56.1518 797.155 L56.1518 809.218 L75.5035 809.218 Q79.864 809.218 81.1053 808.04 Q82.3467 806.831 82.3467 803.17 L82.3467 797.155 L87.2483 797.155 L87.2483 803.17 Q87.2483 809.95 84.7338 812.528 Q82.1875 815.106 75.5035 815.106 L56.1518 815.106 L56.1518 819.403 L51.6003 819.403 L51.6003 815.106 L41.4788 815.106 L41.4788 809.218 Z" fill="#000000" fill-rule="evenodd" fill-opacity="1"></path><path clip-path="url(#clip490)" d="M51.6003 772.933 L51.6003 766.727 L81.5191 755.587 L51.6003 744.447 L51.6003 738.24 L87.2483 751.608 L87.2483 759.565 L51.6003 772.933 Z" fill="#000000" fill-rule="evenodd" fill-opacity="1"></path><path clip-path="url(#clip490)" d="M69.3288 713.955 Q69.3288 721.053 70.952 723.79 Q72.5753 726.527 76.4902 726.527 Q79.6094 726.527 81.4555 724.49 Q83.2697 722.421 83.2697 718.889 Q83.2697 714.019 79.8322 711.091 Q76.3629 708.13 70.6338 708.13 L69.3288 708.13 L69.3288 713.955 M66.9098 702.274 L87.2483 702.274 L87.2483 708.13 L81.8374 708.13 Q85.0839 710.136 86.6435 713.128 Q88.1713 716.119 88.1713 720.448 Q88.1713 725.923 85.1157 729.169 Q82.0284 732.384 76.8722 732.384 Q70.8566 732.384 67.801 728.373 Q64.7455 724.331 64.7455 716.342 L64.7455 708.13 L64.1726 708.13 Q60.1303 708.13 57.9342 710.804 Q55.7062 713.446 55.7062 718.252 Q55.7062 721.307 56.4382 724.204 Q57.1703 727.1 58.6344 729.774 L53.2236 729.774 Q51.9822 726.559 51.3775 723.535 Q50.7409 720.512 50.7409 717.647 Q50.7409 709.913 54.7513 706.093 Q58.7617 702.274 66.9098 702.274 Z" fill="#000000" fill-rule="evenodd" fill-opacity="1"></path><path clip-path="url(#clip490)" d="M37.7231 690.211 L37.7231 684.355 L87.2483 684.355 L87.2483 690.211 L37.7231 690.211 Z" fill="#000000" fill-rule="evenodd" fill-opacity="1"></path><path clip-path="url(#clip490)" d="M73.18 672.705 L51.6003 672.705 L51.6003 666.849 L72.9572 666.849 Q78.018 666.849 80.5643 664.876 Q83.0787 662.902 83.0787 658.955 Q83.0787 654.213 80.055 651.476 Q77.0313 648.707 71.8114 648.707 L51.6003 648.707 L51.6003 642.85 L87.2483 642.85 L87.2483 648.707 L81.7737 648.707 Q85.0203 650.839 86.6117 653.672 Q88.1713 656.473 88.1713 660.197 Q88.1713 666.34 84.3519 669.522 Q80.5324 672.705 73.18 672.705 M50.7409 657.969 L50.7409 657.969 Z" fill="#000000" fill-rule="evenodd" fill-opacity="1"></path><path clip-path="url(#clip490)" d="M67.9602 600.295 L70.8247 600.295 L70.8247 627.222 Q76.8722 626.84 80.055 623.594 Q83.206 620.316 83.206 614.491 Q83.206 611.117 82.3785 607.966 Q81.5509 604.783 79.8959 601.664 L85.434 601.664 Q86.7708 604.815 87.4711 608.125 Q88.1713 611.435 88.1713 614.841 Q88.1713 623.371 83.206 628.368 Q78.2408 633.333 69.7744 633.333 Q61.0215 633.333 55.8971 628.623 Q50.7409 623.88 50.7409 615.86 Q50.7409 608.666 55.3879 604.497 Q60.003 600.295 67.9602 600.295 M66.2414 606.152 Q61.4353 606.216 58.5707 608.857 Q55.7062 611.467 55.7062 615.796 Q55.7062 620.698 58.4753 623.658 Q61.2443 626.586 66.2732 627.031 L66.2414 606.152 Z" fill="#000000" fill-rule="evenodd" fill-opacity="1"></path><polyline clip-path="url(#clip492)" style="stroke:#009af9; stroke-linecap:round; stroke-linejoin:round; stroke-width:16; stroke-opacity:0.5; fill:none" points="
  235.181,821.006 237.239,503.579 239.297,436.678 241.355,436.678 243.413,460.622 245.471,441.608 247.529,446.185 249.587,441.608 251.645,441.608 253.703,446.185 
  255.761,456.044 257.819,441.608 259.877,431.749 261.935,431.749 263.993,431.749 266.051,451.115 268.108,451.115 270.166,470.481 272.224,494.424 274.282,499.354 
  276.34,503.579 278.398,523.297 280.456,532.452 282.514,604.635 284.572,667.31 286.63,676.817 288.688,696.183 290.746,662.381 292.804,643.719 294.862,581.043 
  296.92,561.325 298.978,546.889 301.036,494.424 303.094,537.734 305.152,528.227 307.21,546.889 309.268,494.424 311.326,470.481 313.384,446.185 315.441,465.551 
  317.499,499.354 319.557,508.861 321.615,561.325 323.673,662.381 325.731,715.549 327.789,687.029 329.847,749 331.905,874.351 333.963,950.847 336.021,1042.4 
  338.079,1123.88 340.137,1114.5 342.195,1105.14 344.253,1105.14 346.311,1095.04 348.369,1123.88 350.427,1109.46 352.485,1109.46 354.543,1119.55 356.601,1119.55 
  358.659,1109.46 360.716,1123.88 362.774,1119.55 364.832,1100.08 366.89,1100.08 368.948,1119.55 371.006,1119.55 373.064,1128.93 375.122,1119.55 377.18,1109.46 
  379.238,1105.14 381.296,1042.4 383.354,960.882 385.412,874.351 387.47,893.189 389.528,869.246 391.586,864.316 393.644,859.915 395.702,811.676 397.76,792.133 
  399.818,696.183 401.876,811.676 403.934,840.549 405.992,831.042 408.049,849.88 410.107,845.478 412.165,845.478 414.223,888.788 416.281,907.626 418.339,917.661 
  420.397,946.534 422.455,989.755 424.513,912.555 426.571,970.301 428.629,1037.38 430.687,1004.19 432.745,970.301 434.803,965.196 436.861,1027.96 438.919,1061.85 
  440.977,1027.96 443.035,1056.83 445.093,1066.21 447.151,1100.08 449.209,1056.83 451.267,1027.96 453.324,1056.83 455.382,1022.94 457.44,999.086 459.498,984.738 
  461.556,1027.96 463.614,1008.51 465.672,970.301 467.73,1056.83 469.788,1051.77 471.846,1066.21 473.904,1037.38 475.962,1032.98 478.02,1109.46 480.078,1109.46 
  482.136,1114.5 484.194,1114.5 486.252,1109.46 488.31,1119.55 490.368,1119.55 492.426,1123.88 494.484,1100.08 496.542,1109.46 498.6,1105.14 500.657,1119.55 
  502.715,1123.88 504.773,1114.5 506.831,1123.88 508.889,1119.55 510.947,1114.5 513.005,1100.08 515.063,1123.88 517.121,1095.04 519.179,1123.88 521.237,1114.5 
  523.295,1114.5 525.353,1119.55 527.411,1100.08 529.469,1105.14 531.527,1105.14 533.585,1105.14 535.643,1123.88 537.701,1114.5 539.759,1100.08 541.817,1047.46 
  543.875,1109.46 545.933,1114.5 547.99,1080.6 550.048,1114.5 552.106,1100.08 554.164,1128.93 556.222,1109.46 558.28,1100.08 560.338,1114.5 562.396,1114.5 
  564.454,1109.46 566.512,1114.5 568.57,1128.93 570.628,1095.04 572.686,1109.46 574.744,1123.88 576.802,1123.88 578.86,1090.7 580.918,1109.46 582.976,1123.88 
  585.034,1123.88 587.092,1109.46 589.15,1100.08 591.208,1100.08 593.265,1090.7 595.323,1095.04 597.381,1123.88 599.439,1105.14 601.497,1090.7 603.555,1076.29 
  605.613,1076.29 607.671,1071.22 609.729,1085.66 611.787,1105.14 613.845,1119.55 615.903,1109.46 617.961,1085.66 620.019,1047.46 622.077,1042.4 624.135,1123.88 
  626.193,1109.46 628.251,1105.14 630.309,1109.46 632.367,1100.08 634.425,1109.46 636.483,1114.5 638.541,1119.55 640.598,1105.14 642.656,1066.21 644.714,1061.85 
  646.772,1080.6 648.83,1090.7 650.888,1095.04 652.946,1027.96 655.004,1051.77 657.062,1109.46 659.12,1109.46 661.178,1095.04 663.236,1080.6 665.294,1100.08 
  667.352,1128.93 669.41,1114.5 671.468,1119.55 673.526,1100.08 675.584,1080.6 677.642,1047.46 679.7,1013.52 681.758,1032.98 683.816,946.534 685.873,888.788 
  687.931,907.626 689.989,859.915 692.047,763.436 694.105,811.676 696.163,849.88 698.221,854.985 700.279,739.493 702.337,676.817 704.395,792.133 706.453,840.549 
  708.511,797.239 710.569,777.697 712.627,797.239 714.685,835.443 716.743,898.119 718.801,1013.52 720.859,1085.66 722.917,1100.08 724.975,1105.14 727.033,1085.66 
  729.091,1109.46 731.149,1100.08 733.206,1100.08 735.264,1114.5 737.322,1100.08 739.38,1080.6 741.438,1090.7 743.496,1105.14 745.554,1090.7 747.612,1105.14 
  749.67,1090.7 751.728,1119.55 753.786,1109.46 755.844,1109.46 757.902,1105.14 759.96,1105.14 762.018,1095.04 764.076,1105.14 766.134,1080.6 768.192,1090.7 
  770.25,1105.14 772.308,1080.6 774.366,1095.04 776.424,1119.55 778.482,1114.5 780.539,1100.08 782.597,1095.04 784.655,1128.93 786.713,1128.93 788.771,1119.55 
  790.829,1123.88 792.887,1119.55 794.945,1109.46 797.003,1056.83 799.061,950.847 801.119,917.661 803.177,840.549 805.235,758.859 807.293,667.31 809.351,523.297 
  811.409,460.622 813.467,465.551 815.525,436.678 817.583,441.608 819.641,436.678 821.699,436.678 823.757,436.678 825.814,441.608 827.872,441.608 829.93,427.171 
  831.988,441.608 834.046,460.622 836.104,474.706 838.162,436.678 840.22,465.551 842.278,441.608 844.336,441.608 846.394,431.749 848.452,436.678 850.51,460.622 
  852.568,422.242 854.626,427.171 856.684,441.608 858.742,456.044 860.8,436.678 862.858,446.185 864.916,456.044 866.974,436.678 869.032,436.678 871.09,465.551 
  873.147,474.706 875.205,489.143 877.263,532.452 879.321,552.17 881.379,629.282 883.437,643.719 885.495,662.381 887.553,609.564 889.611,604.635 891.669,600.409 
  893.727,600.409 895.785,614.846 897.843,676.817 899.901,614.846 901.959,600.409 904.017,629.282 906.075,687.029 908.133,797.239 910.191,912.555 912.249,955.865 
  914.307,979.632 916.365,1018.63 918.422,1056.83 920.48,1080.6 922.538,1076.29 924.596,1105.14 926.654,1123.88 928.712,1114.5 930.77,1105.14 932.828,1119.55 
  934.886,1109.46 936.944,1095.04 939.002,1100.08 941.06,1090.7 943.118,1090.7 945.176,1042.4 947.234,965.196 949.292,1071.22 951.35,1090.7 953.408,1100.08 
  955.466,1123.88 957.524,1085.66 959.582,1022.94 961.64,1037.38 963.698,1047.46 965.755,1004.19 967.813,941.428 969.871,1051.77 971.929,1047.46 973.987,1027.96 
  976.045,912.555 978.103,652.874 980.161,474.706 982.219,427.171 984.277,422.242 986.335,441.608 988.393,460.622 990.451,460.622 992.509,465.551 994.567,451.115 
  996.625,446.185 998.683,460.622 1000.74,489.143 1002.8,489.143 1004.86,537.734 1006.91,566.607 1008.97,705.69 1011.03,792.133 1013.09,763.436 1015.15,898.119 
  1017.2,965.196 1019.26,989.755 1021.32,994.069 1023.38,898.119 1025.44,667.31 1027.49,619.071 1029.55,513.79 1031.61,479.988 1033.67,470.481 1035.73,465.551 
  1037.78,456.044 1039.84,460.622 1041.9,537.734 1043.96,503.579 1046.02,470.481 1048.07,474.706 1050.13,446.185 1052.19,460.622 1054.25,451.115 1056.31,489.143 
  1058.36,532.452 1060.42,643.719 1062.48,806.57 1064.54,777.697 1066.6,782.803 1068.65,758.859 1070.71,782.803 1072.77,792.133 1074.83,859.915 1076.89,917.661 
  1078.94,840.549 1081,753.929 1083.06,782.803 1085.12,729.986 1087.17,676.817 1089.23,658.155 1091.29,681.747 1093.35,849.88 1095.41,874.351 1097.46,994.069 
  1099.52,1085.66 1101.58,1119.55 1103.64,1119.55 1105.7,1100.08 1107.75,1105.14 1109.81,1114.5 1111.87,1128.93 1113.93,1123.88 1115.99,1095.04 1118.04,1085.66 
  1120.1,1090.7 1122.16,1066.21 1124.22,1051.77 1126.28,965.196 1128.33,1042.4 1130.39,1095.04 1132.45,1080.6 1134.51,1042.4 1136.57,970.301 1138.62,1061.85 
  1140.68,1114.5 1142.74,1105.14 1144.8,1100.08 1146.86,1100.08 1148.91,1095.04 1150.97,1100.08 1153.03,1085.66 1155.09,1095.04 1157.15,1080.6 1159.2,1109.46 
  1161.26,1114.5 1163.32,1080.6 1165.38,1085.66 1167.44,1123.88 1169.49,1123.88 1171.55,1128.93 1173.61,1128.93 1175.67,1105.14 1177.72,1114.5 1179.78,1071.22 
  1181.84,1123.88 1183.9,1100.08 1185.96,1119.55 1188.01,1071.22 1190.07,1013.52 1192.13,1027.96 1194.19,1027.96 1196.25,1047.46 1198.3,1056.83 1200.36,1004.19 
  1202.42,1004.19 1204.48,1076.29 1206.54,1095.04 1208.59,1056.83 1210.65,1022.94 1212.71,936.323 1214.77,1056.83 1216.83,1071.22 1218.88,1090.7 1220.94,1105.14 
  1223,1090.7 1225.06,1071.22 1227.12,1066.21 1229.17,1027.96 1231.23,1022.94 1233.29,1061.85 1235.35,1051.77 1237.41,1066.21 1239.46,1085.66 1241.52,1105.14 
  1243.58,1061.85 1245.64,1105.14 1247.7,1128.93 1249.75,1128.93 1251.81,1109.46 1253.87,1076.29 1255.93,1114.5 1257.99,1114.5 1260.04,1123.88 1262.1,1114.5 
  1264.16,1085.66 1266.22,1076.29 1268.27,1123.88 1270.33,1109.46 1272.39,1109.46 1274.45,1100.08 1276.51,1105.14 1278.56,1051.77 1280.62,1085.66 1282.68,1090.7 
  1284.74,1105.14 1286.8,1027.96 1288.85,917.661 1290.91,705.69 1292.97,600.409 1295.03,518.016 1297.09,474.706 1299.14,460.622 1301.2,436.678 1303.26,470.481 
  1305.32,451.115 1307.38,431.749 1309.43,451.115 1311.49,427.171 1313.55,465.551 1315.61,436.678 1317.67,431.749 1319.72,441.608 1321.78,451.115 1323.84,431.749 
  1325.9,431.749 1327.96,446.185 1330.01,451.115 1332.07,441.608 1334.13,470.481 1336.19,441.608 1338.25,431.749 1340.3,431.749 1342.36,417.312 1344.42,456.044 
  1346.48,407.805 1348.54,412.735 1350.59,431.749 1352.65,470.481 1354.71,465.551 1356.77,427.171 1358.83,451.115 1360.88,427.171 1362.94,431.749 1365,431.749 
  1367.06,412.735 1369.11,436.678 1371.17,422.242 1373.23,427.171 1375.29,441.608 1377.35,456.044 1379.4,470.481 1381.46,451.115 1383.52,436.678 1385.58,436.678 
  1387.64,436.678 1389.69,431.749 1391.75,436.678 1393.81,436.678 1395.87,431.749 1397.93,446.185 1399.98,446.185 1402.04,427.171 1404.1,431.749 1406.16,431.749 
  1408.22,441.608 1410.27,446.185 1412.33,446.185 1414.39,441.608 1416.45,422.242 1418.51,431.749 1420.56,446.185 1422.62,427.171 1424.68,436.678 1426.74,431.749 
  1428.8,431.749 1430.85,451.115 1432.91,422.242 1434.97,456.044 1437.03,441.608 1439.09,456.044 1441.14,422.242 1443.2,431.749 1445.26,460.622 1447.32,441.608 
  1449.38,427.171 1451.43,431.749 1453.49,446.185 1455.55,465.551 1457.61,446.185 1459.66,427.171 1461.72,441.608 1463.78,441.608 1465.84,441.608 1467.9,427.171 
  1469.95,474.706 1472.01,441.608 1474.07,436.678 1476.13,417.312 1478.19,427.171 1480.24,446.185 1482.3,446.185 1484.36,446.185 1486.42,431.749 1488.48,422.242 
  1490.53,431.749 1492.59,431.749 1494.65,431.749 1496.71,436.678 1498.77,446.185 1500.82,456.044 1502.88,474.706 1504.94,451.115 1507,470.481 1509.06,436.678 
  1511.11,460.622 1513.17,465.551 1515.23,513.79 1517.29,725.056 1519.35,960.882 1521.4,1085.66 1523.46,1076.29 1525.52,1109.46 1527.58,1123.88 1529.64,1119.55 
  1531.69,1109.46 1533.75,1105.14 1535.81,1114.5 1537.87,1105.14 1539.93,1095.04 1541.98,1114.5 1544.04,1105.14 1546.1,1114.5 1548.16,1114.5 1550.21,1119.55 
  1552.27,1114.5 1554.33,1119.55 1556.39,1123.88 1558.45,1114.5 1560.5,1114.5 1562.56,1105.14 1564.62,1085.66 1566.68,1085.66 1568.74,1095.04 1570.79,1109.46 
  1572.85,1090.7 1574.91,1051.77 1576.97,1071.22 1579.03,1061.85 1581.08,1013.52 1583.14,979.632 1585.2,1047.46 1587.26,1008.51 1589.32,989.755 1591.37,849.88 
  1593.43,667.31 1595.49,508.861 1597.55,446.185 1599.61,451.115 1601.66,431.749 1603.72,470.481 1605.78,518.016 1607.84,528.227 1609.9,566.607 1611.95,571.536 
  1614.01,542.663 1616.07,532.452 1618.13,499.354 1620.19,489.143 1622.24,518.016 1624.3,528.227 1626.36,532.452 1628.42,561.325 1630.48,494.424 1632.53,508.861 
  1634.59,499.354 1636.65,537.734 1638.71,518.016 1640.76,546.889 1642.82,508.861 1644.88,518.016 1646.94,494.424 1649,484.917 1651.05,532.452 1653.11,600.409 
  1655.17,600.409 1657.23,619.071 1659.29,687.029 1661.34,652.874 1663.4,633.508 1665.46,652.874 1667.52,609.564 1669.58,595.128 1671.63,600.409 1673.69,528.227 
  1675.75,557.1 1677.81,532.452 1679.87,552.17 1681.92,546.889 1683.98,566.607 1686.04,561.325 1688.1,546.889 1690.16,571.536 1692.21,609.564 1694.27,552.17 
  1696.33,518.016 1698.39,532.452 1700.45,546.889 1702.5,662.381 1704.56,638.437 1706.62,687.029 1708.68,652.874 1710.74,624.001 1712.79,629.282 1714.85,624.001 
  1716.91,624.001 1718.97,638.437 1721.03,658.155 1723.08,797.239 1725.14,792.133 1727.2,878.753 1729.26,725.056 1731.32,734.563 1733.37,797.239 1735.43,826.112 
  1737.49,854.985 1739.55,835.443 1741.6,903.224 1743.66,1022.94 1745.72,999.086 1747.78,917.661 1749.84,989.755 1751.89,1047.46 1753.95,1061.85 1756.01,1109.46 
  1758.07,1123.88 1760.13,1123.88 1762.18,1119.55 1764.24,1119.55 1766.3,1119.55 1768.36,1109.46 1770.42,1085.66 1772.47,1061.85 1774.53,1022.94 1776.59,1022.94 
  1778.65,1061.85 1780.71,1047.46 1782.76,1114.5 1784.82,1095.04 1786.88,1076.29 1788.94,1090.7 1791,1128.93 1793.05,1105.14 1795.11,1114.5 1797.17,1066.21 
  1799.23,1056.83 1801.29,1051.77 1803.34,1085.66 1805.4,1105.14 1807.46,1090.7 1809.52,1071.22 1811.58,1109.46 1813.63,1109.46 1815.69,1105.14 1817.75,1119.55 
  1819.81,1105.14 1821.87,1128.93 1823.92,1105.14 1825.98,1119.55 1828.04,1100.08 1830.1,1100.08 1832.15,1071.22 1834.21,1061.85 1836.27,1076.29 1838.33,1109.46 
  1840.39,1109.46 1842.44,1100.08 1844.5,1100.08 1846.56,1061.85 1848.62,1100.08 1850.68,1076.29 1852.73,1076.29 1854.79,1090.7 1856.85,1090.7 1858.91,1105.14 
  1860.97,1119.55 1863.02,1123.88 1865.08,1114.5 1867.14,1114.5 1869.2,1114.5 1871.26,1123.88 1873.31,1114.5 1875.37,1105.14 1877.43,1105.14 1879.49,1100.08 
  1881.55,1100.08 1883.6,1109.46 1885.66,1100.08 1887.72,1100.08 1889.78,1109.46 1891.84,1114.5 1893.89,1123.88 1895.95,1119.55 1898.01,1085.66 1900.07,1119.55 
  1902.13,1085.66 1904.18,1123.88 1906.24,1114.5 1908.3,1114.5 1910.36,1119.55 1912.42,1119.55 1914.47,1119.55 1916.53,1119.55 1918.59,1114.5 1920.65,1105.14 
  1922.7,1123.88 1924.76,1114.5 1926.82,1090.7 1928.88,1056.83 1930.94,1080.6 1932.99,1071.22 1935.05,1095.04 1937.11,1109.46 1939.17,1105.14 1941.23,1119.55 
  1943.28,1114.5 1945.34,1114.5 1947.4,1085.66 1949.46,1066.21 1951.52,1095.04 1953.57,1114.5 1955.63,1100.08 1957.69,1076.29 1959.75,1119.55 1961.81,1109.46 
  1963.86,1114.5 1965.92,1109.46 1967.98,1114.5 1970.04,1114.5 1972.1,1080.6 1974.15,1085.66 1976.21,1105.14 1978.27,1109.46 1980.33,1109.46 1982.39,1095.04 
  1984.44,1114.5 1986.5,1119.55 1988.56,1109.46 1990.62,1085.66 1992.68,1114.5 1994.73,1114.5 1996.79,1090.7 1998.85,1080.6 2000.91,1066.21 2002.97,1085.66 
  2005.02,1109.46 2007.08,1123.88 2009.14,1128.93 2011.2,1109.46 2013.25,1128.93 2015.31,1128.93 2017.37,1114.5 2019.43,1085.66 2021.49,1071.22 2023.54,1051.77 
  2025.6,936.323 2027.66,840.549 2029.72,821.006 2031.78,782.803 2033.83,773.472 2035.89,705.69 2037.95,710.62 2040.01,729.986 2042.07,720.127 2044.12,749 
  2046.18,874.351 2048.24,763.436 2050.3,787.908 2052.36,744.422 2054.41,667.31 2056.47,643.719 2058.53,489.143 2060.59,513.79 2062.65,523.297 2064.7,552.17 
  2066.76,595.128 2068.82,575.762 2070.88,575.762 2072.94,604.635 2074.99,542.663 2077.05,499.354 2079.11,503.579 2081.17,523.297 2083.23,557.1 2085.28,624.001 
  2087.34,546.889 2089.4,566.607 2091.46,561.325 2093.52,590.198 2095.57,566.607 2097.63,581.043 2099.69,672.592 2101.75,705.69 2103.8,687.029 2105.86,652.874 
  2107.92,638.437 2109.98,715.549 2112.04,696.183 2114.09,633.508 2116.15,518.016 2118.21,499.354 2120.27,503.579 2122.33,508.861 2124.38,537.734 2126.44,537.734 
  2128.5,537.734 2130.56,561.325 2132.62,537.734 2134.67,571.536 2136.73,604.635 2138.79,629.282 2140.85,595.128 2142.91,546.889 2144.96,518.016 2147.02,489.143 
  2149.08,479.988 2151.14,451.115 2153.2,460.622 2155.25,431.749 2157.31,441.608 2159.37,436.678 2161.43,427.171 2163.49,465.551 2165.54,441.608 2167.6,451.115 
  2169.66,422.242 2171.72,436.678 2173.78,436.678 2175.83,431.749 2177.89,436.678 2179.95,417.312 2182.01,427.171 2184.07,441.608 2186.12,436.678 2188.18,422.242 
  2190.24,456.044 2192.3,474.706 2194.36,518.016 2196.41,542.663 2198.47,532.452 2200.53,528.227 2202.59,523.297 2204.64,503.579 2206.7,528.227 2208.76,518.016 
  2210.82,460.622 2212.88,479.988 2214.93,451.115 2216.99,436.678 2219.05,427.171 2221.11,431.749 2223.17,436.678 2225.22,489.143 2227.28,446.185 2229.34,451.115 
  2231.4,441.608 2233.46,441.608 2235.51,436.678 2237.57,456.044 2239.63,422.242 2241.69,460.622 2243.75,456.044 2245.8,456.044 2247.86,422.242 2249.92,427.171 
  2251.98,451.115 2254.04,431.749 2256.09,427.171 2258.15,460.622 2260.21,431.749 2262.27,451.115 2264.33,451.115 2266.38,460.622 2268.44,465.551 2270.5,431.749 
  2272.56,456.044 2274.62,494.424 2276.67,518.016 2278.73,647.944 2280.79,936.323 2282.85,1056.83 2284.91,1080.6 2286.96,1076.29 2289.02,1114.5 2291.08,1114.5 
  
  "></polyline>
<polyline clip-path="url(#clip492)" style="stroke:#e26f46; stroke-linecap:round; stroke-linejoin:round; stroke-width:16; stroke-opacity:0.5; fill:none" points="
  235.181,1054.63 237.239,1045.26 239.297,1048.87 241.355,1076.99 243.413,1035.18 245.471,958.77 247.529,878.048 249.587,879.457 251.645,841.253 253.703,795.126 
  255.761,846.182 257.819,857.802 259.877,862.908 261.935,844.07 263.993,822.415 266.051,752.521 268.108,691.958 270.166,675.409 272.224,640.902 274.282,687.029 
  276.34,672.592 278.398,659.564 280.456,593.719 282.514,662.381 284.572,704.282 286.63,694.071 288.688,696.888 290.746,690.55 292.804,686.324 294.862,716.606 
  296.92,779.986 298.978,689.141 301.036,660.268 303.094,714.141 305.152,680.338 307.21,658.155 309.268,722.944 311.326,687.733 313.384,678.226 315.441,656.043 
  317.499,683.86 319.557,667.31 321.615,642.31 323.673,604.635 325.731,626.466 327.789,606.747 329.847,570.832 331.905,536.325 333.963,507.452 336.021,495.128 
  338.079,482.1 340.137,464.143 342.195,474.706 344.253,464.143 346.311,477.171 348.369,480.692 350.427,467.664 352.485,466.96 354.543,460.622 356.601,446.185 
  358.659,469.072 360.716,474.706 362.774,469.072 364.832,468.368 366.89,492.312 368.948,518.72 371.006,541.255 373.064,601.114 375.122,676.817 377.18,742.31 
  379.238,758.859 381.296,729.282 383.354,704.986 385.412,652.874 387.47,703.578 389.528,668.015 391.586,685.268 393.644,672.592 395.702,647.24 397.76,654.282 
  399.818,637.733 401.876,599.705 403.934,654.986 405.992,656.043 408.049,650.057 410.107,650.761 412.165,634.916 414.223,579.987 416.281,565.903 418.339,573.649 
  420.397,608.86 422.455,696.183 424.513,587.381 426.571,563.438 428.629,551.466 430.687,559.917 432.745,554.987 434.803,541.255 436.861,561.325 438.919,552.874 
  440.977,545.48 443.035,557.1 445.093,549.705 447.151,562.029 449.209,588.79 451.267,554.987 453.324,541.255 455.382,558.508 457.44,559.212 459.498,556.396 
  461.556,562.734 463.614,557.1 465.672,550.762 467.73,554.987 469.788,546.889 471.846,521.889 473.904,466.96 475.962,431.044 478.02,431.749 480.078,425.763 
  482.136,431.749 484.194,415.904 486.252,433.861 488.31,431.044 490.368,422.242 492.426,435.974 494.484,436.678 496.542,422.242 498.6,418.016 500.657,431.749 
  502.715,422.242 504.773,427.171 506.831,438.087 508.889,436.678 510.947,422.242 513.005,427.171 515.063,427.875 517.121,422.242 519.179,422.242 521.237,427.171 
  523.295,422.946 525.353,432.453 527.411,438.087 529.469,440.199 531.527,436.678 533.585,447.594 535.643,443.016 537.701,435.27 539.759,443.016 541.817,444.425 
  543.875,439.495 545.933,461.326 547.99,447.594 550.048,443.72 552.106,439.495 554.164,437.382 556.222,446.185 558.28,443.72 560.338,443.72 562.396,439.495 
  564.454,440.903 566.512,443.72 568.57,441.608 570.628,454.636 572.686,483.509 574.744,506.044 576.802,538.438 578.86,562.029 580.918,513.086 582.976,516.607 
  585.034,497.241 587.092,506.044 589.15,504.987 591.208,485.621 593.265,509.565 595.323,487.03 597.381,531.748 599.439,535.269 601.497,510.973 603.555,508.156 
  605.613,511.678 607.671,528.931 609.729,504.283 611.787,522.593 613.845,526.818 615.903,514.494 617.961,511.678 620.019,515.199 622.077,513.79 624.135,506.044 
  626.193,516.607 628.251,522.593 630.309,511.678 632.367,503.579 634.425,482.805 636.483,449.002 638.541,493.72 640.598,517.311 642.656,544.072 644.714,512.382 
  646.772,525.41 648.83,511.678 650.888,510.269 652.946,507.452 655.004,513.79 657.062,526.114 659.12,513.086 661.178,537.734 663.236,564.846 665.294,514.494 
  667.352,523.297 669.41,553.579 671.468,604.635 673.526,632.099 675.584,608.86 677.642,621.888 679.7,639.142 681.758,682.451 683.816,621.184 685.873,625.409 
  687.931,612.029 689.989,627.874 692.047,614.846 694.105,624.705 696.163,659.564 698.221,707.803 700.279,624.705 702.337,616.959 704.395,616.959 706.453,620.48 
  708.511,632.099 710.569,617.663 712.627,609.564 714.685,567.311 716.743,515.199 718.801,487.03 720.859,508.156 722.917,522.593 724.975,546.184 727.033,508.156 
  729.091,489.847 731.149,506.748 733.206,510.269 735.264,515.903 737.322,515.903 739.38,521.185 741.438,510.269 743.496,503.579 745.554,504.283 747.612,512.382 
  749.67,497.945 751.728,511.678 753.786,502.171 755.844,500.058 757.902,487.734 759.96,511.678 762.018,497.241 764.076,495.833 766.134,516.607 768.192,513.79 
  770.25,506.044 772.308,492.312 774.366,497.945 776.424,518.72 778.482,502.875 780.539,482.1 782.597,520.128 784.655,500.058 786.713,504.283 788.771,522.593 
  790.829,546.184 792.887,609.564 794.945,674 797.003,718.014 799.061,687.029 801.119,702.873 803.177,720.127 805.235,781.394 807.293,873.647 809.351,806.57 
  811.409,733.155 813.467,764.141 815.525,807.978 817.583,851.288 819.641,912.555 821.699,956.569 823.757,880.865 825.814,904.633 827.872,948.646 829.93,879.457 
  831.988,858.506 834.046,906.745 836.104,882.978 838.162,863.612 840.22,888.083 842.278,894.598 844.336,874.351 846.394,890.196 848.452,903.928 850.51,884.386 
  852.568,872.239 854.626,838.964 856.684,767.662 858.742,826.112 860.8,880.161 862.858,854.105 864.916,799.352 866.974,748.296 869.032,722.24 871.09,749.704 
  873.147,689.141 875.205,678.226 877.263,683.155 879.321,678.226 881.379,678.226 883.437,694.775 885.495,720.127 887.553,675.409 889.611,658.86 891.669,684.564 
  893.727,680.338 895.785,675.409 897.843,654.986 899.901,604.635 901.959,658.86 904.017,607.452 906.075,573.649 908.133,556.396 910.191,575.057 912.249,559.917 
  914.307,571.536 916.365,552.17 918.422,519.424 920.48,479.283 922.538,520.128 924.596,538.438 926.654,533.861 928.712,550.762 930.77,579.987 932.828,531.748 
  934.886,541.959 936.944,552.17 939.002,585.269 941.06,543.368 943.118,533.861 945.176,544.776 947.234,535.269 949.292,533.861 951.35,529.635 953.408,512.382 
  955.466,557.804 957.524,641.606 959.582,537.03 961.64,548.297 963.698,591.607 965.755,727.873 967.813,546.184 969.871,577.874 971.929,689.845 973.987,909.034 
  976.045,1041.69 978.103,1018.63 980.161,970.301 982.219,903.224 984.277,834.739 986.335,796.535 988.393,843.365 990.451,827.521 992.509,782.803 994.567,746.183 
  996.625,684.564 998.683,609.564 1000.74,569.424 1002.8,586.677 1004.86,560.621 1006.91,553.579 1008.97,564.142 1011.03,560.621 1013.09,540.551 1015.15,564.142 
  1017.2,581.043 1019.26,629.987 1021.32,728.578 1023.38,857.802 1025.44,738.789 1027.49,796.535 1029.55,768.366 1031.61,798.647 1033.67,782.098 1035.73,756.042 
  1037.78,709.211 1039.84,624.705 1041.9,699.704 1043.96,764.141 1046.02,812.38 1048.07,758.859 1050.13,746.183 1052.19,729.282 1054.25,694.775 1056.31,645.832 
  1058.36,627.17 1060.42,589.494 1062.48,637.029 1064.54,615.55 1066.6,640.902 1068.65,639.846 1070.71,618.367 1072.77,637.733 1074.83,642.31 1076.89,645.832 
  1078.94,656.747 1081,687.029 1083.06,756.042 1085.12,703.578 1087.17,633.508 1089.23,588.086 1091.29,514.494 1093.35,571.536 1095.41,497.241 1097.46,479.988 
  1099.52,466.255 1101.58,478.579 1103.64,482.805 1105.7,490.903 1107.75,478.579 1109.81,477.875 1111.87,482.805 1113.93,502.171 1115.99,545.48 1118.04,487.734 
  1120.1,517.311 1122.16,567.311 1124.22,605.339 1126.28,585.973 1128.33,598.297 1130.39,593.015 1132.45,590.198 1134.51,572.945 1136.57,535.269 1138.62,500.762 
  1140.68,486.326 1142.74,502.171 1144.8,492.312 1146.86,479.988 1148.91,495.833 1150.97,497.241 1153.03,503.579 1155.09,493.72 1157.15,489.143 1159.2,473.298 
  1161.26,495.128 1163.32,485.621 1165.38,495.833 1167.44,495.833 1169.49,495.833 1171.55,493.72 1173.61,501.466 1175.67,517.311 1177.72,554.283 1179.78,585.269 
  1181.84,562.734 1183.9,599.001 1185.96,567.311 1188.01,568.719 1190.07,569.424 1192.13,586.677 1194.19,560.621 1196.25,537.03 1198.3,577.17 1200.36,562.734 
  1202.42,538.438 1204.48,567.311 1206.54,570.832 1208.59,564.846 1210.65,561.325 1212.71,542.663 1214.77,510.269 1216.83,534.565 1218.88,523.297 1220.94,521.889 
  1223,520.128 1225.06,528.227 1227.12,545.48 1229.17,521.889 1231.23,517.311 1233.29,510.269 1235.35,493.72 1237.41,477.875 1239.46,487.03 1241.52,498.649 
  1243.58,519.424 1245.64,534.565 1247.7,502.171 1249.75,487.03 1251.81,494.424 1253.87,480.692 1255.93,484.213 1257.99,487.734 1260.04,482.805 1262.1,487.03 
  1264.16,499.354 1266.22,481.396 1268.27,475.762 1270.33,485.621 1272.39,479.988 1274.45,482.805 1276.51,482.1 1278.56,487.03 1280.62,501.466 1282.68,558.508 
  1284.74,681.043 1286.8,813.788 1288.85,851.288 1290.91,858.506 1292.97,883.682 1295.03,860.619 1297.09,829.633 1299.14,859.21 1301.2,874.351 1303.26,880.161 
  1305.32,910.442 1307.38,873.647 1309.43,862.908 1311.49,843.365 1313.55,880.865 1315.61,908.33 1317.67,968.805 1319.72,1005.6 1321.78,1020.74 1323.84,1035.88 
  1325.9,1007.1 1327.96,1022.94 1330.01,1009.91 1332.07,1013.52 1334.13,1012.82 1336.19,999.086 1338.25,1010.71 1340.3,1015.02 1342.36,998.382 1344.42,959.474 
  1346.48,870.83 1348.54,976.727 1350.59,911.147 1352.65,993.364 1354.71,1018.63 1356.77,997.678 1358.83,1008.51 1360.88,1007.8 1362.94,1007.8 1365,1005.6 
  1367.06,1004.9 1369.11,994.773 1371.17,1009.91 1373.23,990.46 1375.29,955.865 1377.35,881.569 1379.4,970.301 1381.46,889.492 1383.52,975.319 1385.58,1003.49 
  1387.64,1010.71 1389.69,981.129 1391.75,1008.51 1393.81,1009.91 1395.87,1024.35 1397.93,1034.47 1399.98,1025.05 1402.04,992.66 1404.1,935.618 1406.16,1013.52 
  1408.22,1032.27 1410.27,1015.02 1412.33,1027.96 1414.39,1009.91 1416.45,1022.24 1418.51,1032.98 1420.56,1049.61 1422.62,1074.83 1424.68,1037.38 1426.74,986.85 
  1428.8,1031.57 1430.85,1036.59 1432.91,1027.96 1434.97,1012.11 1437.03,1027.96 1439.09,1036.59 1441.14,1015.72 1443.2,997.678 1445.26,969.597 1447.32,1029.46 
  1449.38,1010.71 1451.43,978.224 1453.49,906.745 1455.55,834.739 1457.61,898.119 1459.66,956.569 1461.72,1000.58 1463.78,968.101 1465.84,1000.58 1467.9,971.005 
  1469.95,994.773 1472.01,957.273 1474.07,985.442 1476.13,1009.21 1478.19,983.241 1480.24,924.879 1482.3,854.105 1484.36,799.352 1486.42,810.971 1488.48,825.408 
  1490.53,862.027 1492.59,949.351 1494.65,1000.58 1496.71,1014.23 1498.77,996.269 1500.82,979.632 1502.88,933.506 1504.94,825.408 1507,924.175 1509.06,805.162 
  1511.11,657.451 1513.17,589.494 1515.23,526.114 1517.29,482.805 1519.35,499.354 1521.4,493.72 1523.46,503.579 1525.52,496.537 1527.58,482.1 1529.64,498.649 
  1531.69,514.494 1533.75,498.649 1535.81,496.537 1537.87,506.044 1539.93,545.48 1541.98,500.058 1544.04,488.438 1546.1,465.551 1548.16,493.72 1550.21,482.1 
  1552.27,458.861 1554.33,484.917 1556.39,470.481 1558.45,486.326 1560.5,502.875 1562.56,519.424 1564.62,557.1 1566.68,608.156 1568.74,562.734 1570.79,606.043 
  1572.85,583.86 1574.91,606.043 1576.97,597.592 1579.03,602.522 1581.08,600.409 1583.14,606.747 1585.2,642.31 1587.26,735.972 1589.32,857.802 1591.37,896.006 
  1593.43,865.02 1595.49,803.049 1597.55,717.31 1599.61,795.126 1601.66,738.789 1603.72,681.747 1605.78,707.099 1607.84,676.817 1609.9,685.268 1611.95,687.029 
  1614.01,685.268 1616.07,704.986 1618.13,735.972 1620.19,689.141 1622.24,684.564 1624.3,672.592 1626.36,693.366 1628.42,679.634 1630.48,657.451 1632.53,690.55 
  1634.59,702.873 1636.65,746.887 1638.71,685.268 1640.76,664.493 1642.82,695.479 1644.88,718.718 1646.94,769.07 1649,683.155 1651.05,620.48 1653.11,686.324 
  1655.17,658.86 1657.23,600.409 1659.29,665.902 1661.34,689.845 1663.4,681.043 1665.46,659.564 1667.52,686.324 1669.58,686.324 1671.63,692.662 1673.69,686.324 
  1675.75,696.888 1677.81,699.704 1679.87,687.029 1681.92,685.268 1683.98,682.451 1686.04,704.986 1688.1,687.733 1690.16,689.845 1692.21,697.592 1694.27,731.042 
  1696.33,683.155 1698.39,671.184 1700.45,625.409 1702.5,694.775 1704.56,661.677 1706.62,689.141 1708.68,694.071 1710.74,680.338 1712.79,651.465 1714.85,690.55 
  1716.91,661.677 1718.97,614.142 1721.03,534.565 1723.08,577.17 1725.14,643.719 1727.2,701.465 1729.26,646.536 1731.32,618.367 1733.37,616.254 1735.43,611.325 
  1737.49,617.663 1739.55,606.043 1741.6,587.381 1743.66,539.142 1745.72,588.086 1747.78,546.889 1749.84,503.579 1751.89,512.382 1753.95,503.579 1756.01,506.748 
  1758.07,503.579 1760.13,508.861 1762.18,498.649 1764.24,502.171 1766.3,507.452 1768.36,526.114 1770.42,564.846 1772.47,514.494 1774.53,536.325 1776.59,518.016 
  1778.65,515.199 1780.71,517.311 1782.76,533.156 1784.82,518.72 1786.88,502.875 1788.94,521.185 1791,515.903 1793.05,528.227 1795.11,556.396 1797.17,524.001 
  1799.23,541.959 1801.29,517.311 1803.34,536.325 1805.4,572.945 1807.46,532.452 1809.52,515.199 1811.58,515.199 1813.63,484.213 1815.69,514.494 1817.75,498.649 
  1819.81,511.678 1821.87,487.03 1823.92,519.424 1825.98,492.312 1828.04,521.185 1830.1,525.41 1832.15,544.776 1834.21,528.227 1836.27,521.889 1838.33,552.874 
  1840.39,603.226 1842.44,528.227 1844.5,556.396 1846.56,596.888 1848.62,552.17 1850.68,524.706 1852.73,510.269 1854.79,486.326 1856.85,497.945 1858.91,537.03 
  1860.97,504.283 1863.02,500.058 1865.08,489.143 1867.14,482.805 1869.2,487.734 1871.26,484.917 1873.31,487.03 1875.37,497.241 1877.43,504.987 1879.49,482.805 
  1881.55,487.734 1883.6,472.593 1885.66,456.044 1887.72,467.664 1889.78,484.917 1891.84,470.481 1893.89,475.762 1895.95,481.396 1898.01,479.988 1900.07,475.762 
  1902.13,484.213 1904.18,477.875 1906.24,481.396 1908.3,469.776 1910.36,475.762 1912.42,482.805 1914.47,462.03 1916.53,463.438 1918.59,474.002 1920.65,471.185 
  1922.7,474.706 1924.76,474.002 1926.82,479.283 1928.88,483.509 1930.94,469.776 1932.99,488.438 1935.05,469.776 1937.11,460.622 1939.17,479.283 1941.23,492.312 
  1943.28,480.692 1945.34,474.706 1947.4,477.875 1949.46,471.889 1951.52,477.171 1953.57,468.368 1955.63,470.481 1957.69,479.988 1959.75,474.002 1961.81,477.875 
  1963.86,482.1 1965.92,497.945 1967.98,549.001 1970.04,490.903 1972.1,482.1 1974.15,477.171 1976.21,436.678 1978.27,456.044 1980.33,467.664 1982.39,482.805 
  1984.44,529.635 1986.5,583.86 1988.56,508.156 1990.62,474.706 1992.68,465.551 1994.73,477.875 1996.79,483.509 1998.85,486.326 2000.91,469.072 2002.97,483.509 
  2005.02,478.579 2007.08,479.283 2009.14,497.945 2011.2,513.79 2013.25,570.832 2015.31,674 2017.37,719.423 2019.43,693.366 2021.49,711.324 2023.54,690.55 
  2025.6,686.324 2027.66,696.183 2029.72,690.55 2031.78,672.592 2033.83,694.775 2035.89,685.268 2037.95,661.677 2040.01,613.437 2042.07,651.465 2044.12,576.466 
  2046.18,641.606 2048.24,726.465 2050.3,650.761 2052.36,694.071 2054.41,714.845 2056.47,776.288 2058.53,696.183 2060.59,683.86 2062.65,668.015 2064.7,693.366 
  2066.76,691.958 2068.82,697.592 2070.88,703.578 2072.94,740.197 2074.99,704.986 2077.05,723.648 2079.11,687.029 2081.17,663.085 2083.23,618.367 2085.28,691.254 
  2087.34,654.986 2089.4,608.156 2091.46,681.043 2093.52,652.874 2095.57,598.297 2097.63,660.268 2099.69,677.522 2101.75,686.324 2103.8,669.423 2105.86,660.268 
  2107.92,613.437 2109.98,678.226 2112.04,732.451 2114.09,840.549 2116.15,733.155 2118.21,678.93 2120.27,674.705 2122.33,676.817 2124.38,668.015 2126.44,676.113 
  2128.5,674.705 2130.56,684.564 2132.62,680.338 2134.67,656.043 2136.73,608.156 2138.79,667.31 2140.85,679.634 2142.91,705.69 2144.96,773.472 2147.02,896.71 
  2149.08,944.245 2151.14,935.618 2153.2,926.992 2155.25,942.837 2157.31,957.977 2159.37,941.428 2161.43,947.238 2163.49,963.787 2165.54,1010.71 2167.6,950.847 
  2169.66,933.506 2171.72,910.442 2173.78,834.035 2175.83,926.992 2177.89,963.787 2179.95,996.269 2182.01,1051.77 2184.07,1020.04 2186.12,956.569 2188.18,897.414 
  2190.24,790.021 2192.3,664.493 2194.36,693.366 2196.41,741.606 2198.47,673.296 2200.53,689.141 2202.59,737.38 2204.64,679.634 2206.7,696.183 2208.76,709.916 
  2210.82,735.972 2212.88,791.429 2214.93,843.365 2216.99,868.541 2219.05,855.689 2221.11,867.837 2223.17,880.161 2225.22,846.182 2227.28,862.908 2229.34,883.682 
  2231.4,951.551 2233.46,859.915 2235.51,899.527 2237.57,975.319 2239.63,1041.69 2241.69,996.269 2243.75,946.534 2245.8,975.319 2247.86,984.738 2249.92,983.241 
  2251.98,972.414 2254.04,985.442 2256.09,997.678 2258.15,1021.45 2260.21,987.555 2262.27,978.224 2264.33,983.946 2266.38,963.083 2268.44,902.52 2270.5,765.549 
  2272.56,647.944 2274.62,602.522 2276.67,562.734 2278.73,517.311 2280.79,499.354 2282.85,487.03 2284.91,458.861 2286.96,492.312 2289.02,543.368 2291.08,654.282 
  
  "></polyline>
<path clip-path="url(#clip490)" d="
M2018.69 250.839 L2280.11 250.839 L2280.11 95.3189 L2018.69 95.3189  Z
  " fill="#ffffff" fill-rule="evenodd" fill-opacity="1"></path>
<polyline clip-path="url(#clip490)" style="stroke:#000000; stroke-linecap:round; stroke-linejoin:round; stroke-width:4; stroke-opacity:1; fill:none" points="
  2018.69,250.839 2280.11,250.839 2280.11,95.3189 2018.69,95.3189 2018.69,250.839 
  "></polyline>
<polyline clip-path="url(#clip490)" style="stroke:#009af9; stroke-linecap:round; stroke-linejoin:round; stroke-width:4; stroke-opacity:0.5; fill:none" points="
  2042.91,147.159 2188.19,147.159 
  "></polyline>
<path clip-path="url(#clip490)" d="M2236.43 150.411 L2236.43 152.495 L2216.85 152.495 Q2217.13 156.893 2219.49 159.207 Q2221.87 161.499 2226.11 161.499 Q2228.56 161.499 2230.85 160.897 Q2233.17 160.295 2235.44 159.092 L2235.44 163.119 Q2233.15 164.092 2230.74 164.601 Q2228.33 165.11 2225.85 165.11 Q2219.65 165.11 2216.02 161.499 Q2212.41 157.888 2212.41 151.731 Q2212.41 145.365 2215.83 141.638 Q2219.28 137.888 2225.11 137.888 Q2230.34 137.888 2233.38 141.268 Q2236.43 144.624 2236.43 150.411 M2232.17 149.161 Q2232.13 145.666 2230.21 143.583 Q2228.31 141.499 2225.16 141.499 Q2221.59 141.499 2219.44 143.513 Q2217.31 145.527 2216.99 149.184 L2232.17 149.161 Z" fill="#000000" fill-rule="evenodd" fill-opacity="1"></path><path clip-path="url(#clip490)" d="M2244.44 163.536 L2244.44 169.971 L2241.76 169.971 L2241.76 150.018 Q2241.76 144.092 2247.96 144.092 Q2254.28 144.092 2254.3 149.092 Q2254.33 152.633 2251.78 153.93 Q2255.85 155.11 2255.88 158.559 Q2255.9 164.717 2248.84 164.717 Q2245.76 164.694 2244.44 163.536 M2244.44 160.434 Q2246.06 162.68 2248.96 162.68 Q2253.15 162.68 2253.15 158.606 Q2253.15 154.948 2246.36 155.226 L2246.36 153.027 Q2251.69 153.12 2251.69 148.883 Q2251.69 146.036 2248.26 146.036 Q2244.44 146.036 2244.44 150.087 L2244.44 160.434 Z" fill="#000000" fill-rule="evenodd" fill-opacity="1"></path><polyline clip-path="url(#clip490)" style="stroke:#e26f46; stroke-linecap:round; stroke-linejoin:round; stroke-width:4; stroke-opacity:0.5; fill:none" points="
  2042.91,198.999 2188.19,198.999 
  "></polyline>
<path clip-path="url(#clip490)" d="M2213.98 181.719 L2219 181.719 L2227.59 194.566 L2236.22 181.719 L2241.25 181.719 L2230.14 198.316 L2241.99 216.279 L2236.97 216.279 L2227.24 201.58 L2217.45 216.279 L2212.41 216.279 L2224.74 197.83 L2213.98 181.719 Z" fill="#000000" fill-rule="evenodd" fill-opacity="1"></path></svg>